<svg width="14" height="14" viewBox="0 0 14 14" fill="none" xmlns="http://www.w3.org/2000/svg">
<path d="M6.99995 13.5812C3.37182 13.5812 0.418701 10.6281 0.418701 6.99995C0.418701 3.37182 3.37182 0.418701 6.99995 0.418701C10.6281 0.418701 13.5812 3.37182 13.5812 6.99995C13.5812 10.6281 10.6281 13.5812 6.99995 13.5812ZM6.99995 1.12183C3.76557 1.12183 1.12183 3.76557 1.12183 6.99995C1.12183 10.2343 3.76557 12.8781 6.99995 12.8781C10.2343 12.8781 12.8781 10.2343 12.8781 6.99995C12.8781 3.76557 10.2343 1.12183 6.99995 1.12183Z" fill="#262626"/>
<path d="M6.21248 9.8406L2.8656 6.4656L3.37186 5.95935L6.21248 8.8281L10.6281 4.41248L11.1344 4.91873L6.21248 9.8406Z" fill="#262626"/>
</svg>
